<?xml version="1.0" encoding="UTF-8"?>
<svg width="17px" height="17px" viewBox="0 0 17 17" version="1.1" xmlns="http://www.w3.org/2000/svg" xmlns:xlink="http://www.w3.org/1999/xlink">
    <!-- Generator: Sketch 51 (57462) - http://www.bohemiancoding.com/sketch -->
    <title>linkedin icon</title>
    <desc>Created with Sketch.</desc>
    <defs></defs>
    <g id="Page-1" stroke="none" stroke-width="1" fill="none" fill-rule="evenodd" fill-opacity="0.5">
        <g id="Landing-page" transform="translate(-857.000000, -941.000000)" fill="#FFFFFF">
            <g id="Header">
                <g id="social-share" transform="translate(697.000000, 938.000000)">
                    <g id="linkedin" transform="translate(160.000000, 3.000000)">
                        <path d="M0.428798213,5.45114611 L3.74223895,5.45114611 L3.74223895,16.9989115 L0.428798213,16.9989115 L0.428798213,5.45114611 Z M2.00105833,4.00672301 L1.97706961,4.00672301 C0.777634055,4.00672301 -3.10862447e-15,3.12395953 -3.10862447e-15,2.00608273 C-3.10862447e-15,0.865347676 0.800623236,0 2.02404751,0 C3.24647225,0 3.99811853,0.8631707 4.02210724,2.00281726 C4.02210724,3.12069407 3.24647225,4.00672301 2.00105833,4.00672301 L2.00105833,4.00672301 Z M17,17 L13.2427681,17 L13.2427681,11.0231144 C13.2427681,9.45895761 12.6550447,8.39223972 11.3626529,8.39223972 C10.3741181,8.39223972 9.82437676,9.11173006 9.56849718,9.80727366 C9.47254233,10.0554488 9.48753528,10.4026764 9.48753528,10.7509924 L9.48753528,17 L5.76528692,17 C5.76528692,17 5.81326435,6.41336919 5.76528692,5.45114611 L9.48753528,5.45114611 L9.48753528,7.26347804 C9.7074318,6.47105903 10.8968721,5.34012037 12.7949788,5.34012037 C15.1498706,5.34012037 17,7.002241 17,10.5779229 L17,17 L17,17 Z" id="linkedin-icon"></path>
                    </g>
                </g>
            </g>
        </g>
    </g>
</svg>