<?xml version="1.0" encoding="UTF-8"?>
<svg width="18px" height="16px" viewBox="0 0 18 16" version="1.1" xmlns="http://www.w3.org/2000/svg" xmlns:xlink="http://www.w3.org/1999/xlink">
    <!-- Generator: Sketch 51 (57462) - http://www.bohemiancoding.com/sketch -->
    <title>twitter icon</title>
    <desc>Created with Sketch.</desc>
    <defs></defs>
    <g id="Page-1" stroke="none" stroke-width="1" fill="none" fill-rule="evenodd" fill-opacity="0.5">
        <g id="Landing-page" transform="translate(-697.000000, -942.000000)" fill="#FFFFFF">
            <g id="Header">
                <g id="social-share" transform="translate(697.000000, 938.000000)">
                    <g id="twitter" transform="translate(0.000000, 4.000000)">
                        <path d="M15.8795563,2.43919853 C16.6423666,1.95782175 17.2276809,1.19452756 17.5023772,0.285260312 C16.7881669,0.732093849 15.9989435,1.0552403 15.1568938,1.2301851 C14.4849445,0.472462392 13.5245642,0 12.461701,0 C10.4226096,0 8.77020602,1.74387652 8.77020602,3.89447184 C8.77020602,4.19978952 8.80084522,4.49730711 8.86423666,4.78145313 C5.79609086,4.61876561 3.07554147,3.06989125 1.25303751,0.712036483 C0.935023772,1.2892429 0.753301638,1.95782175 0.753301638,2.67097253 C0.753301638,4.02150183 1.40517697,5.21380079 2.39619651,5.91357999 C1.79080824,5.89352263 1.22134179,5.71634923 0.722662441,5.42663172 L0.722662441,5.47454654 C0.722662441,7.36216752 1.99471738,8.93667072 3.68621236,9.29324612 C3.37559429,9.38461856 3.05018489,9.43030478 2.7120972,9.43030478 C2.47437929,9.43030478 2.241944,9.40690452 2.01796091,9.3612183 C2.48705758,10.9078641 3.85103011,12.0355337 5.46751189,12.0656198 C4.20285261,13.1108314 2.61067089,13.7326097 0.881141046,13.7326097 C0.583201268,13.7326097 0.288431062,13.7158953 0,13.6791234 C1.63444268,14.7833928 3.57527734,15.4285714 5.66085578,15.4285714 C12.4543053,15.4285714 16.1669308,9.49381977 16.1669308,4.34687687 C16.1669308,4.17750356 16.1648177,4.00924455 16.1574221,3.84321413 C16.879028,3.29386517 17.5066033,2.60745754 18,1.82633458 C17.3375594,2.13610945 16.6254622,2.34559749 15.8795563,2.43919853 Z" id="twitter-icon"></path>
                    </g>
                </g>
            </g>
        </g>
    </g>
</svg>