<?xml version="1.0" encoding="UTF-8"?>
<svg width="28px" height="36px" viewBox="0 0 28 36" version="1.1" xmlns="http://www.w3.org/2000/svg" xmlns:xlink="http://www.w3.org/1999/xlink">
    <!-- Generator: Sketch 51 (57462) - http://www.bohemiancoding.com/sketch -->
    <title>Imported Layers</title>
    <desc>Created with Sketch.</desc>
    <defs></defs>
    <g id="Page-1" stroke="none" stroke-width="1" fill="none" fill-rule="evenodd">
        <g id="Landing-page" transform="translate(-398.000000, -1616.000000)" fill="#424753">
            <g id="Group-2" transform="translate(230.000000, 1590.000000)">
                <g id="header" transform="translate(135.000000, 0.000000)">
                    <path d="M47.5,36.92125 L47.5,34.5 L48.125,34.5 C48.4,34.5 48.64375,34.31875 48.72375,34.055 L50.59875,27.805 C50.655,27.615 50.61875,27.41 50.50125,27.25125 C50.3825,27.0925 50.1975,27 50,27 L38.75,27 C38.55125,27 38.36625,27.0925 38.2475,27.25125 C38.13,27.41 38.09375,27.615 38.15125,27.805 L40.02625,34.055 C40.105,34.31875 40.34875,34.5 40.625,34.5 L41.25,34.5 L41.25,36.92125 C37.61375,38.2125 35,41.6775 35,45.75 C35,50.65625 42.88,63.64875 43.21625,64.2 C43.32875,64.38625 43.53125,64.5 43.75,64.5 L43.75,49.5 C43.75,49.47 43.76125,49.445 43.76625,49.4175 C42.68125,49.14375 41.875,48.17 41.875,47 C41.875,45.61875 42.99375,44.5 44.375,44.5 C45.755,44.5 46.875,45.61875 46.875,47 C46.875,48.17 46.0675,49.14375 44.9825,49.41625 C44.98625,49.445 45,49.47 45,49.5 L45,64.5 C45.22125,64.5 45.4275,64.38125 45.54,64.18875 C45.875,63.61375 53.75,50.0425 53.75,45.75 C53.75,41.6775 51.135,38.2125 47.5,36.92125 L47.5,36.92125 Z M46.25,36.56375 C45.64375,36.44 45.01625,36.375 44.375,36.375 C43.7325,36.375 43.105,36.44 42.5,36.56375 L42.5,34.5 L46.25,34.5 L46.25,36.56375 L46.25,36.56375 Z" id="Imported-Layers" transform="translate(45.000000, 46.375000) rotate(34.000000) translate(-45.000000, -46.375000) "></path>
                </g>
            </g>
        </g>
    </g>
</svg>