<svg width="28" height="36" xmlns="http://www.w3.org/2000/svg"><path d="M19.36 13.935l1.353-2.007.518.35c.228.153.532.14.745-.034l5.05-4.133a.625.625 0 0 0-.046-1.002L17.653.816a.625.625 0 0 0-.947.333l-1.94 6.23a.625.625 0 0 0 .247.704l.519.35-1.354 2.007c-3.737-.963-7.842.448-10.119 3.824C1.316 18.332.583 33.51.554 34.155a.623.623 0 0 0 .274.547l8.388-12.435c.017-.025.04-.04.06-.06a2.496 2.496 0 0 1 3.254-3.736 2.494 2.494 0 1 1-2.245 4.415c-.013.026-.016.055-.032.08L1.865 35.4c.183.124.42.14.621.044.6-.29 14.717-7.137 17.118-10.695 2.277-3.376 2.047-7.711-.245-10.815zm-.837-.995a9.37 9.37 0 0 0-3.11-2.097l1.155-1.71 3.109 2.096-1.154 1.711z" fill="#424753" fill-rule="evenodd"/></svg>