<svg width="45" height="36" xmlns="http://www.w3.org/2000/svg"><g fill="none" fill-rule="evenodd"><path d="M19.226 9.932l.309 1.03a.44.44 0 0 0 .42.312h.44v1.703C17.838 13.885 16 16.322 16 19.185c0 3.45 5.541 12.587 5.778 12.975a.437.437 0 0 0 .375.211V21.823c0-.022.008-.04.012-.058a1.755 1.755 0 0 1 .428-3.459 1.754 1.754 0 1 1 .427 3.457c.003.02.012.038.012.06V32.37c.156 0 .3-.084.38-.219.236-.404 5.773-9.948 5.773-12.967 0-2.863-1.838-5.3-4.395-6.208v-1.703h.44a.441.441 0 0 0 .42-.313l.337-1.121c.746-.316 1.499-.54 2.132-.54 4.898 0 8.868 3.984 8.868 8.898S22.5 35.2 22.5 35.2 8.013 23.112 8.013 18.198 11.983 9.3 16.881 9.3c.694 0 1.531.27 2.345.632z" fill="#FFF"/><path d="M41 19.5C41 9.283 32.717 1 22.5 1S4 9.283 4 19.5" stroke="#FFF" stroke-width="2"/><path d="M6 14a6 6 0 1 0 0 12m33-12a6 6 0 1 1 0 12" fill="#FFF"/></g></svg>